<svg viewBox="0 0 1135 1091.4" xmlns="http://www.w3.org/2000/svg">
  <rect width="1135" height="1091.4" rx="160" fill="#ffffff"/>
  <g transform="translate(340.5,327.42) scale(0.4)" fill="#5ac8fa">
    <path d="M0,6.4L533.5,0l194.3,369.8 -201.1,361.6 -516.7,5.5L0,6.4ZM448.1,355.2l-170.7,-180.8 -21.3,366.2 192.1,-185.4Z"/>
    <path d="M518.7,1091.4l-27.5,-283.2 208.1,-8.2 22.9,106.2 83.5,-4.5 9.1,-88.9 -317.9,-83.5 29.7,-357.6 568.3,-11.8 40,313.1 -209.3,11.8 -35.5,-132.5h-77.8l-6.9,120.7 316.8,84.4 -27.5,331.3 -576.3,2.7Z"/>
    <path d="M8.9,768.5l441.6,-13.3l36,336.1l-478.3,-15.8l0.6,-307z"/>
    <path d="M586.8,0l140.4,326.4l365.6,11.2l19.7,-337.4l-525.7,-0.2z"/>
  </g>
</svg>
